<svg width="6" height="11" viewBox="0 0 6 11" fill="none" xmlns="http://www.w3.org/2000/svg">
<path d="M0.569668 0.8562C0.632978 0.79289 0.705785 0.761235 0.788088 0.761235C0.870391 0.761235 0.943198 0.79289 1.00651 0.8562L5.43189 5.28158C5.4952 5.34489 5.52686 5.4177 5.52686 5.5C5.52686 5.58231 5.4952 5.65511 5.43189 5.71842L1.00651 10.1438C0.943198 10.2071 0.870391 10.2388 0.788088 10.2388C0.705785 10.2388 0.632978 10.2071 0.569668 10.1438L0.0948415 9.66898C0.0315313 9.60567 -0.000123501 9.53286 -0.000123501 9.45056C-0.000123501 9.36825 0.0315313 9.29545 0.0948415 9.23214L3.82698 5.5L0.0948415 1.76787C0.0315313 1.70456 -0.000123501 1.63175 -0.000123501 1.54945C-0.000123501 1.46714 0.0315313 1.39434 0.0948415 1.33103L0.569668 0.8562Z" fill="white"/>
</svg>
